<svg width="12" height="7" viewBox="0 0 12 7" fill="none" xmlns="http://www.w3.org/2000/svg">
<path fill-rule="evenodd" clip-rule="evenodd" d="M10.8751 1.94441H11.2501C11.664 1.94441 12 2.29287 12 2.72221V4.27778C12 4.70747 11.664 5.05555 11.25 5.05555H10.875V6.22224C10.875 6.65193 10.539 7 10.125 7H0.749987C0.336022 7 0 6.65197 0 6.22224V0.777763C0 0.348423 0.335644 -4.35039e-05 0.749987 0H10.1251C10.5391 0 10.8751 0.348423 10.8751 0.777763V1.94441ZM9.37505 5.83331C9.58241 5.83331 9.75004 5.65947 9.75004 5.44443V1.55553C9.75004 1.34088 9.58241 1.16664 9.37505 1.16664H1.50002C1.29303 1.16664 1.12502 1.34088 1.12502 1.55553V5.44443C1.12502 5.65947 1.29303 5.83331 1.50002 5.83331H9.37505Z" fill="#CCD0D2"/>
<rect x="2" y="2" width="7" height="3" rx="0.5" fill="#51BA6C"/>
</svg>
