<svg width="13" height="13" viewBox="0 0 13 13" fill="none" xmlns="http://www.w3.org/2000/svg">
<path d="M2.7661 11.5703C2.96 11.5703 3.11689 11.4131 3.11689 11.2188C3.11689 11.0245 2.96 10.8672 2.7661 10.8672C2.1856 10.8672 1.71347 10.3942 1.71347 9.81262C1.71347 9.61826 1.55649 9.46106 1.3626 9.46106C1.16861 9.46106 1.01172 9.61826 1.01172 9.81262C1.01172 10.7818 1.79873 11.5703 2.7661 11.5703Z" fill="#51BA6C" stroke="#4CBB69" stroke-width="0.3"/>
<path d="M1.3626 8.75793C1.55649 8.75793 1.71347 8.60065 1.71347 8.40637V7.00012C1.71347 6.80585 1.55649 6.64856 1.3626 6.64856C1.16861 6.64856 1.01172 6.80585 1.01172 7.00012V8.40637C1.01172 8.60065 1.16861 8.75793 1.3626 8.75793Z" fill="#51BA6C" stroke="#4CBB69" stroke-width="0.3"/>
<path d="M1.3626 5.94547C1.55649 5.94547 1.71347 5.78818 1.71347 5.59391V4.16422C1.71347 3.58268 2.1856 3.10953 2.7661 3.10953H4.41422L3.27323 3.87171C3.11177 3.97956 3.06828 4.19755 3.17592 4.35923C3.28164 4.51844 3.49838 4.56568 3.66249 4.45673L5.76766 3.05048C5.97736 2.91086 5.96768 2.59876 5.76766 2.46555L3.66249 1.0593C3.50002 0.951178 3.2831 0.995124 3.17592 1.15681C3.06828 1.31849 3.11177 1.53647 3.27323 1.64432L4.41422 2.4065H2.7661C1.79873 2.4065 1.01172 3.19504 1.01172 4.16422V5.59391C1.01172 5.78818 1.16861 5.94547 1.3626 5.94547Z" fill="#51BA6C" stroke="#4CBB69" stroke-width="0.3"/>
<path d="M5.57299 10.8672H4.16948C3.97558 10.8672 3.8186 11.0245 3.8186 11.2188C3.8186 11.4131 3.97558 11.5703 4.16948 11.5703H5.57299C5.76689 11.5703 5.92387 11.4131 5.92387 11.2188C5.92387 11.0245 5.76689 10.8672 5.57299 10.8672Z" fill="#51BA6C" stroke="#4CBB69" stroke-width="0.3"/>
<path fill-rule="evenodd" clip-rule="evenodd" d="M7.67815 1.00024H11.9354C12.5159 1.00024 12.988 1.4733 12.988 2.05493V3.46109C12.988 4.04263 12.5159 4.51578 11.9354 4.51578H10.1577V5.24234H11.9354C12.5159 5.24234 12.988 5.71539 12.988 6.29703V7.70319C12.988 8.28473 12.5159 8.75787 11.9354 8.75787H10.1577V9.461H11.9354C12.5159 9.461 12.988 9.93405 12.988 10.5157V11.9453C12.988 12.5268 12.5159 13 11.9354 13H7.67815C7.09774 13 6.62561 12.5268 6.62561 11.9453V10.5157C6.62561 9.93405 7.09774 9.461 7.67815 9.461H9.45593V8.75787H7.67815C7.09774 8.75787 6.62561 8.28473 6.62561 7.70319V6.29703C6.62561 5.71539 7.09774 5.24234 7.67815 5.24234H9.45593V4.51578H7.67815C7.09774 4.51578 6.62561 4.04263 6.62561 3.46109V2.05493C6.62561 1.4733 7.09774 1.00024 7.67815 1.00024ZM11.5845 11.2187C11.5845 11.0244 11.4276 10.8672 11.2337 10.8672H8.3799C8.18601 10.8672 8.02903 11.0244 8.02903 11.2187C8.02903 11.4131 8.18601 11.5703 8.3799 11.5703H11.2337C11.4276 11.5703 11.5845 11.4131 11.5845 11.2187ZM11.2337 6.6485C11.4276 6.6485 11.5845 6.80579 11.5845 7.00006C11.5845 7.19443 11.4276 7.35162 11.2337 7.35162H8.3799C8.18601 7.35162 8.02903 7.19443 8.02903 7.00006C8.02903 6.80579 8.18601 6.6485 8.3799 6.6485H11.2337ZM8.3799 3.10953H11.2337C11.4276 3.10953 11.5845 2.95233 11.5845 2.75797C11.5845 2.56369 11.4276 2.4064 11.2337 2.4064H8.3799C8.18601 2.4064 8.02903 2.56369 8.02903 2.75797C8.02903 2.95233 8.18601 3.10953 8.3799 3.10953Z" fill="#CCD0D2"/>
</svg>
